<?xml version="1.0" encoding="utf-8"?>
<!-- Generator: Adobe Illustrator 23.0.1, SVG Export Plug-In . SVG Version: 6.00 Build 0)  -->
<svg version="1.1" id="Layer_1" xmlns="http://www.w3.org/2000/svg" xmlns:xlink="http://www.w3.org/1999/xlink" x="0px" y="0px"
	 viewBox="0 0 600 400" style="enable-background:new 0 0 600 400;" xml:space="preserve">
<style type="text/css">
	.st0{fill:#0A1423;}
	.st1{clip-path:url(#SVGID_2_);fill:#C35000;}
	.st2{clip-path:url(#SVGID_2_);fill:#E6E6E6;}
</style>
<rect class="st0" width="600" height="400"/>
<g>
	<defs>
		<rect id="SVGID_1_" width="600" height="400"/>
	</defs>
	<clipPath id="SVGID_2_">
		<use xlink:href="#SVGID_1_"  style="overflow:visible;"/>
	</clipPath>
	<path class="st1" d="M218.07,261.58l-7.2-12.08h-22.71l3.96-6.8h14.72l-10.7-17.96l-21.79,36.84h-9.57l27.6-45.95
		c0.99-1.65,2.25-2.71,4.09-2.71c1.85,0,3.04,1.06,4.03,2.71l27.67,45.95H218.07z"/>
	<polygon class="st1" points="240.19,261.58 240.19,221.96 221.96,221.96 221.96,213.58 266.79,213.58 266.79,221.96 248.57,221.96 
		248.57,261.58 	"/>
	<polygon class="st1" points="272.34,261.58 272.34,213.58 280.72,213.58 280.72,253.19 313.01,253.19 313.01,261.58 	"/>
	<path class="st1" d="M369.06,261.58l-7.2-12.08h-22.71l3.96-6.8h14.72l-10.7-17.96l-21.79,36.84h-9.57l27.6-45.95
		c0.99-1.65,2.25-2.71,4.09-2.71c1.85,0,3.04,1.06,4.03,2.71l27.67,45.95H369.06z"/>
	<path class="st1" d="M384.3,261.58v-8.39h35.98c4.49,0,7-2.51,7-6.27c0-4.09-2.51-6.21-7-6.21h-22.05
		c-9.05,0-14.66-5.74-14.66-13.67c0-7.73,5.22-13.47,14.79-13.47h34.46v8.39h-34.46c-3.83,0-6.07,2.24-6.07,5.88
		c0,3.63,2.31,5.81,6.01,5.81h21.99c9.71,0,14.92,4.56,14.92,13.87c0,8.05-4.89,14.06-14.92,14.06H384.3z"/>
	<polygon class="st1" points="281.27,161.75 288.87,168.4 292.85,178.6 293.6,157.69 275.18,151.23 	"/>
	<polygon class="st1" points="307.22,178.59 311.2,168.4 318.8,161.75 324.89,151.22 306.47,157.69 	"/>
	<path class="st1" d="M336.59,138.27c3.9-5-0.09-9.43-1.31-10.59l8.32-24.19l-25.32,10.54h-36.48l-25.32-10.54l8.3,24.14
		c-1.15,1.08-5.32,5.56-1.36,10.64l-10.99,23.9l16.96,8.94c0,0,2.47,7.03,5.58,9.64l4.78,2.78l5.5,14.17l14.8,8.1l14.8-8.1
		l5.52-14.22l4.69-2.73c3.11-2.6,5.58-9.64,5.58-9.64l16.96-8.94L336.59,138.27z M326.01,167.69l-1.59-5.18l-0.07-0.87l-16.01,33.02
		l-2.43,0.81c0.89-2.58-1.02-5.27-3.75-5.27h-4.26c-2.73,0-4.64,2.69-3.75,5.27l-2.43-0.81l-16.01-33.02l-0.05,0.56l-1.68,5.49
		l-10.88-5.71l4.66-4.88l-6.41-1.93c0,0,5.25-15.93,12.63-18.65l-0.02-0.02l2.36,1.64l-8.91-21.68l13.17,4.25l8.16,0.08v0.03
		c0,0,7.05,2.39,6.05,9.58l5.86,12.73l5.86-12.73c-1.01-7.18,6.05-9.58,6.05-9.58v-0.04l6.95-0.07l13.17-4.25l-8.91,21.68l2.3-1.61
		c7.37,2.76,12.6,18.64,12.6,18.64l-6.41,1.93l4.66,4.88L326.01,167.69z"/>
	<rect x="166.93" y="269.34" class="st2" width="4.68" height="26.8"/>
	<path class="st2" d="M180.86,276.53v19.61h-4.46v-24.33c0-1.73,0.92-2.8,2.4-2.8c0.7,0,1.29,0.26,1.99,0.96l18.91,18.76v-19.61
		h4.46v24.55c0,1.77-0.96,2.8-2.32,2.8c-0.77,0-1.47-0.33-2.14-0.99L180.86,276.53z"/>
	<path class="st2" d="M208.7,296.14v-26.8h15.52c7.56,0,13.05,5.35,13.05,13.12c0,7.78-5.49,13.68-13.05,13.68H208.7z
		 M224.22,291.46c4.83,0,8.37-3.72,8.37-8.77c0-5.05-3.54-8.66-8.37-8.66h-10.88v17.44H224.22z"/>
	<path class="st2" d="M265.07,269.34h4.57v14.97c0,8.29-4.09,12.2-14.49,12.2c-10.32,0-14.45-3.91-14.45-12.2v-14.97h4.83v14.97
		c0,5.38,2.4,7.6,9.77,7.6c7.37,0,9.77-2.21,9.77-7.6V269.34z"/>
	<path class="st2" d="M273.88,296.14v-4.68h20.09c2.51,0,3.91-1.4,3.91-3.5c0-2.29-1.4-3.46-3.91-3.46h-12.31
		c-5.05,0-8.18-3.21-8.18-7.63c0-4.31,2.91-7.52,8.26-7.52h19.24v4.68h-19.24c-2.14,0-3.39,1.25-3.39,3.28
		c0,2.03,1.29,3.24,3.35,3.24h12.28c5.42,0,8.33,2.54,8.33,7.74c0,4.5-2.73,7.85-8.33,7.85H273.88z"/>
	<polygon class="st2" points="314.91,296.14 314.91,274.02 304.74,274.02 304.74,269.34 329.77,269.34 329.77,274.02 319.59,274.02 
		319.59,296.14 	"/>
	<path class="st2" d="M357.75,296.14l-6.78-7.45h-10.03v-4.13h11.17c3.36,0,5.12-1.92,5.12-5.38s-1.92-5.16-5.12-5.16h-14.6v22.12
		h-4.65v-26.8h19.24c6.12,0,9.73,3.8,9.73,9.77c0,4.42-2.07,7.56-5.53,8.89l8.07,8.15H357.75z"/>
	<rect x="367.08" y="269.34" class="st2" width="4.68" height="26.8"/>
	<path class="st2" d="M376.66,296.14v-26.8h23.93v4.68h-19.28v17.44h19.32v4.68H376.66z M384.74,280.54h14.86v3.94h-14.86V280.54z"
		/>
	<path class="st2" d="M404.65,296.14v-4.68h20.09c2.51,0,3.91-1.4,3.91-3.5c0-2.29-1.4-3.46-3.91-3.46h-12.31
		c-5.05,0-8.18-3.21-8.18-7.63c0-4.31,2.91-7.52,8.26-7.52h19.24v4.68H412.5c-2.14,0-3.39,1.25-3.39,3.28
		c0,2.03,1.29,3.24,3.35,3.24h12.28c5.42,0,8.33,2.54,8.33,7.74c0,4.5-2.73,7.85-8.33,7.85H404.65z"/>
</g>
</svg>
